# xmcd
#
# Track frame offsets:
#	150
#	15292
#	35116
#	51197
#	68025
#	81873
#	97482
#	112356
#	123902
#	141760
#	160530
#	178188
#	190289
#	205641
#	225641
#	238961
#
# Disc length: 3358 seconds
#
# Revision: 1
# Processed by: cddbd v1.5.2PL0 Copyright (c) Steve Scherf et al.
# Submitted via: audiograbber 1.83.01
#
DISCID=e30d1c10
DTITLE=VA - Hits 'n' More - The Ultimate 70's Collection CD 2
DYEAR=1900
DGENRE=Oldies
TTITLE0=McCrea, George - Rock Your Baby
TTITLE1=Goombay Dance Band - Sun of Jamaica
TTITLE2=Papaer Lace - Billy Don't Be A Hero
TTITLE3=Santa Esmeralda - Don't Let Me Be Misunderstood
TTITLE4=Fortunes, The - Freedom Come, Freedom Go
TTITLE5=Petrel, Peter - Liverpool Lou
TTITLE6=Detroit Esmeralds, The - Feel the need in me
TTITLE7=Lighthouse, Edison - Love Grows
TTITLE8=Ward, Anita - Ring My Bell
TTITLE9=Houston, Thelma - Don't leave me this Way
TTITLE10=Chi - Lites, The - Oh girl
TTITLE11=Bay City Rollers - Bye Bye Baby
TTITLE12=Delphonics, The - La La Means I Love You
TTITLE13=Melvin, Harold and The Blue Notes - If You Don't need me by now
TTITLE14=Pop Tops - Hideaway
TTITLE15=Three Degrees, The - When Will I See You Again
EXTD=
EXTT0=
EXTT1=
EXTT2=
EXTT3=
EXTT4=
EXTT5=
EXTT6=
EXTT7=
EXTT8=
EXTT9=
EXTT10=
EXTT11=
EXTT12=
EXTT13=
EXTT14=
EXTT15=
PLAYORDER=
